<?xml version="1.0" encoding="UTF-8" standalone="no"?><!-- Generator: Gravit.io --><svg xmlns="http://www.w3.org/2000/svg" xmlns:xlink="http://www.w3.org/1999/xlink" style="isolation:isolate" viewBox="0 0 512 192" width="512pt" height="192pt"><defs><clipPath id="_clipPath_8tW2KsSqy1vojKORYssiE4rSVTg1Y2J4"><rect width="512" height="192"/></clipPath></defs><g clip-path="url(#_clipPath_8tW2KsSqy1vojKORYssiE4rSVTg1Y2J4)"><path d=" M 496 128 L 480 144 L 480 160 L 464 176 L 464 192 L 496 160 L 512 160 L 512 128 L 512 128 L 512 128 L 496 128 L 496 128 L 496 128 L 496 128 L 496 128 L 496 128 L 496 128 L 496 128 L 496 128 L 496 128 L 496 128 L 496 128 L 496 128 L 496 128 L 496 128 Z  M 432 112 L 432 112 L 432 112 L 432 112 L 464 80 L 480 96 L 512 96 L 496 112 L 496 112 L 496 112 L 480 112 L 464 128 L 464 144 L 434.532 114.532 L 464 144 L 464 160 L 448 176 L 448 192 L 400 192 L 416 176 L 416 160 L 432 144 L 448 144 L 432 128 L 432 112 L 432 112 L 432 112 L 432 112 L 432 112 L 432 112 L 432 112 L 432 112 L 432 112 L 432 112 L 432 112 L 432 112 Z  M 512 176 L 512 192 L 512 176 L 512 176 L 512 176 L 512 176 L 512 176 L 512 176 L 512 176 L 512 176 L 512 176 L 512 176 Z  M 352 80 L 336 80 L 304 112 L 304 128 L 288 128 L 256 160 L 272 160 L 272 176 L 256 192 L 288 192 L 304 176 L 304 144 L 320 128 L 320 112 L 352 80 L 352 80 L 352 80 L 352 80 L 352 80 L 352 80 L 352 80 L 352 80 L 352 80 L 352 80 L 352 80 L 352 80 L 352 80 L 352 80 L 352 80 L 352 80 L 352 80 Z  M 496 192 L 512 192 L 512 176 L 496 192 L 496 192 L 496 192 L 496 192 L 496 192 L 496 192 L 496 192 L 496 192 L 496 192 L 496 192 L 496 192 L 496 192 L 496 192 L 496 192 L 496 192 L 496 192 L 496 192 Z  M 496 112 L 496 112 L 496 112 L 496 112 L 512 128 L 512 128 L 512 128 L 512 96 L 496 112 L 496 112 L 496 112 L 496 112 L 496 112 L 496 112 L 496 112 L 496 112 L 496 112 L 496 112 L 496 112 L 496 112 L 496 112 L 496 112 L 496 112 Z  M 384 128 L 384 128 L 432 80 L 400 80 L 384 96 L 384 112 L 368 96 L 368 112 L 352 128 L 368 144 L 368 160 L 352 176 L 352 192 L 384 192 L 400 176 L 400 144 L 384 128 L 384 128 L 384 128 L 384 128 L 384 128 L 384 128 L 384 128 L 384 128 L 384 128 L 384 128 L 384 128 L 384 128 Z  M 48 160 L 80 160 L 80 160 L 64 176 L 64 192 L 0 192 L 0 176 L 32 176 L 16 160 L 0 160 L 0 144 L 16 128 L 48 160 L 48 160 L 48 160 L 48 160 Z  M 272 96 L 256 96 L 240 112 L 256 112 L 272 96 L 272 96 L 272 96 L 272 96 L 272 96 L 272 96 L 272 96 L 272 96 L 272 96 Z  M 304 32 L 320 16 L 336 16 L 336 48 L 320 64 L 304 64 L 272 96 L 272 80 L 304 48 L 304 32 L 304 32 L 304 32 L 304 32 L 304 32 L 304 32 L 304 32 L 304 32 Z  M 208 80 L 224 64 L 224 48 L 240 64 L 240 96 L 224 112 L 224 128 L 208 144 L 192 128 L 208 112 L 208 80 L 208 80 L 208 80 L 208 80 L 208 80 L 208 80 L 208 80 Z  M 192 112 L 192 128 L 208 144 L 208 160 L 192 176 L 176 176 L 192 160 L 176 144 L 176 128 L 192 112 L 192 112 L 192 112 L 192 112 L 192 112 L 192 112 Z  M 128 112 L 96 144 L 96 160 L 64 192 L 80 192 L 128 144 L 128 128 L 144 112 L 128 112 L 128 112 L 128 112 L 128 112 L 128 112 Z  M 80 96 L 64 96 L 48 112 L 48 128 L 80 96 L 80 96 Z  M 32 48 L 0 80 L 0 128 L 16 112 L 32 112 L 64 80 L 64 48 L 32 48 Z  M 16 176" fill-rule="evenodd" fill="#0c0218"/><path d=" M 32 112 L 32 112 L 64 80 L 80 80 L 96 64 L 96 64 L 96 64 L 96 64 L 96 64 L 96 64 L 96 64 L 96 64 L 96 48 L 112 64 L 112 80 L 96 80 L 80 96 L 64 96 L 48 112 L 48 128 L 36.202 116.202 L 64 144 L 64 128 L 80 128 L 80 128 L 112 96 L 128 112 L 96 144 L 96 160 L 64 192 L 64 176 L 80 160 L 69.016 149.016 L 80 160 L 48 160 L 16 128 L 16 112 L 32 112 Z  M 288 128 L 304 128 L 288 112 L 240 112 L 240 112 L 240 112 L 240 128 L 256 128 L 224 160 L 224 176 L 208 192 L 208 192 L 208 192 L 256 192 L 272 176 L 272 160 L 256 160 L 288 128 L 288 128 L 288 128 L 288 128 L 288 128 L 288 128 L 288 128 L 288 128 L 288 128 L 288 128 L 288 128 L 288 128 L 288 128 L 288 128 L 288 128 Z  M 208 48 L 224 48 L 224 64 L 208 80 L 208 112 L 192 128 L 192 80 L 208 64 L 208 48 L 208 48 L 208 48 L 208 48 L 208 48 L 208 48 L 208 48 L 208 48 L 208 48 L 208 48 L 208 48 L 208 48 L 208 48 Z  M 496 160 L 512 160 L 512 176 L 496 160 L 496 160 L 496 160 L 496 160 L 496 160 L 496 160 L 496 160 L 496 160 L 496 160 L 496 160 L 496 160 L 496 160 L 496 160 L 496 160 L 496 160 L 496 160 L 496 160 L 496 160 L 496 160 L 496 160 Z  M 416 112 L 464 64 L 464 32 L 480 32 L 512 64 L 512 96 L 480 96 L 464 80 L 432 112 L 416 112 L 416 112 L 416 112 L 416 112 L 416 112 L 416 112 L 416 112 L 416 112 L 416 112 L 416 112 L 416 112 L 416 112 L 416 112 L 416 112 L 416 112 L 416 112 L 416 112 L 416 112 L 416 112 Z  M 400 176 L 416 176 L 416 160 L 432 144 L 448 144 L 432 128 L 416 144 L 400 128 L 400 176 L 400 176 L 400 176 L 400 176 L 400 176 L 400 176 L 400 176 L 400 176 L 400 176 L 400 176 L 400 176 L 400 176 L 400 176 L 400 176 L 400 176 L 400 176 L 400 176 L 400 176 Z  M 384 112 L 384 96 L 400 80 L 432 80 L 400 48 L 384 64 L 384 80 L 368 96 L 368 96 L 368 96 L 384 112 L 384 112 L 384 112 L 384 112 L 384 112 L 384 112 L 384 112 L 384 112 L 384 112 L 384 112 L 384 112 L 384 112 L 384 112 L 384 112 L 384 112 L 384 112 L 384 112 Z  M 464 160 L 480 160 L 480 144 L 496 128 L 512 128 L 496 112 L 480 112 L 480 128 L 464 144 L 464 160 L 464 160 L 464 160 L 464 160 L 464 160 L 464 160 L 464 160 L 464 160 L 464 160 L 464 160 L 464 160 L 464 160 L 464 160 L 464 160 L 464 160 L 464 160 L 464 160 L 464 160 L 464 160 L 464 160 Z  M 176 176 L 192 176 L 208 192 L 208 192 L 208 192 L 144 192 L 128 176 L 128 176 L 128 176 L 128 176 L 128 176 L 128 176 L 128 160 L 144 160 L 160 144 L 144 128 L 144 80 L 160 80 L 192 112 L 176 128 L 176 144 L 192 160 L 176 176 L 176 176 L 176 176 L 176 176 L 176 176 L 176 176 L 176 176 Z  M 224 128 L 224 112 L 240 96 L 240 80 L 256 80 L 304 32 L 304 48 L 272 80 L 272 96 L 256 96 L 240 112 L 240 112 L 224 128 L 224 128 L 224 128 L 224 128 L 224 128 L 224 128 L 224 128 L 224 128 L 224 128 L 224 128 L 224 128 L 224 128 L 224 128 L 224 128 Z  M 336 96 L 336 128 L 352 144 L 320 176 L 304 176 L 288 192 L 352 192 L 352 176 L 368 160 L 368 144 L 352 128 L 368 112 L 368 96 L 368 96 L 368 96 L 336 96 L 336 96 L 336 96 L 336 96 L 336 96 L 336 96 L 336 96 L 336 96 L 336 96 L 336 96 L 336 96 L 336 96 L 336 96 L 336 96 L 336 96 L 336 96 Z  M 112 192 L 128 192 L 112 176 L 112 192 L 112 192 L 112 192 L 112 192 L 112 192 L 112 192 L 112 192 L 112 192 L 112 192 L 112 192 L 112 192 Z  M 0 160 L 0 176 L 32 176 L 16 160 L 0 160 L 0 160 L 0 160 L 0 160 L 0 160 L 0 160 L 0 160 L 0 160 L 0 160 L 0 160 Z  M 448 192 L 448 176 L 464 176 L 464 192 L 448 192 L 448 192 L 448 192 L 448 192 L 448 192 L 448 192 L 448 192 L 448 192 L 448 192 Z  M 16 16 L 16 32 L 32 32 L 0 64 L 0 80 L 32 48 L 64 48 L 32 16 L 16 16 L 16 16 L 16 16 L 16 16 L 16 16 L 16 16 Z  M 272 112 L 304 80 L 320 80 L 336 64 L 352 80 L 336 80 L 304 112 L 304 128 L 288 112 L 272 112 L 272 112 L 272 112 L 272 112 L 272 112 Z  M 288 32 L 320 0 L 336 16 L 320 16 L 304 32 L 288 32 L 288 32 L 288 32 L 288 32 Z  M 112 96 L 128 112 L 144 112 L 112 80 L 112 96 L 112 96 L 112 96 Z " fill-rule="evenodd" fill="#170236"/><path d=" M 304 144 L 320 128 L 320 112 L 336 96 L 336 128 L 352 144 L 320 176 L 304 176 L 304 144 L 304 144 L 304 144 L 304 144 L 304 144 L 304 144 L 304 144 L 304 144 L 304 144 L 304 144 L 304 144 Z  M 272 112 L 304 80 L 320 80 L 336 64 L 304 64 L 256 112 L 272 112 L 272 112 L 272 112 L 272 112 L 272 112 L 272 112 L 272 112 L 272 112 L 272 112 L 272 112 Z  M 512 64 L 496 48 L 512 32 L 512 64 L 512 64 L 512 64 L 512 64 L 512 64 L 512 64 L 512 64 L 512 64 L 512 64 L 512 64 L 512 64 L 512 64 L 512 64 L 512 64 L 512 64 L 512 64 Z  M 400 176 L 384 192 L 400 192 L 416 176 L 400 176 L 400 176 L 400 176 L 400 176 L 400 176 L 400 176 L 400 176 L 400 176 L 400 176 L 400 176 L 400 176 L 400 176 L 400 176 L 400 176 L 400 176 Z  M 480 112 L 464 128 L 464 144 L 480 128 L 480 112 L 480 112 L 480 112 L 480 112 L 480 112 L 480 112 L 480 112 L 480 112 L 480 112 L 480 112 L 480 112 L 480 112 L 480 112 L 480 112 Z  M 464 192 L 496 192 L 512 176 L 496 160 L 464 192 L 464 192 L 464 192 L 464 192 L 464 192 L 464 192 L 464 192 L 464 192 L 464 192 L 464 192 L 464 192 L 464 192 L 464 192 L 464 192 L 464 192 L 464 192 L 464 192 Z  M 384 128 L 432 80 L 432 64 L 464 32 L 464 64 L 416 112 L 432 112 L 432 128 L 416 144 L 400 128 L 400 144 L 384 128 L 384 128 L 384 128 L 384 128 L 384 128 L 384 128 L 384 128 L 384 128 L 384 128 L 384 128 L 384 128 L 384 128 L 384 128 Z  M 464 176 L 480 160 L 464 160 L 448 176 L 464 176 L 464 176 L 464 176 L 464 176 L 464 176 L 464 176 L 464 176 L 464 176 L 464 176 L 464 176 L 464 176 L 464 176 L 464 176 L 464 176 L 464 176 L 464 176 L 464 176 Z  M 352 96 L 368 96 L 384 80 L 384 64 L 400 48 L 384 48 L 368 64 L 368 80 L 352 96 L 352 96 L 352 96 L 352 96 L 352 96 L 352 96 L 352 96 L 352 96 L 352 96 L 352 96 L 352 96 L 352 96 Z  M 240 80 L 240 64 L 256 64 L 272 48 L 272 32 L 304 0 L 320 0 L 288 32 L 304 32 L 256 80 L 240 80 L 240 80 L 240 80 L 240 80 L 240 80 L 240 80 L 240 80 L 240 80 L 240 80 Z  M 208 144 L 208 160 L 192 176 L 208 192 L 224 176 L 224 160 L 256 128 L 240 128 L 240 112 L 208 144 L 208 144 L 208 144 L 208 144 L 208 144 L 208 144 L 208 144 L 208 144 Z  M 160 80 L 176 64 L 192 64 L 208 48 L 208 64 L 192 80 L 192 112 L 160 80 L 160 80 L 160 80 L 160 80 L 160 80 L 160 80 L 160 80 Z  M 128 128 L 128 144 L 80 192 L 112 192 L 112 176 L 128 192 L 144 192 L 128 176 L 128 160 L 144 160 L 160 144 L 144 128 L 144 112 L 128 128 L 128 128 L 128 128 L 128 128 L 128 128 L 128 128 Z  M 144 80 L 128 96 L 144 112 L 144 80 L 144 80 L 144 80 L 144 80 L 144 80 Z  M 112 80 L 112 96 L 80 128 L 64 128 L 64 144 L 48 128 L 96 80 L 112 80 L 112 80 L 112 80 L 112 80 Z  M 64 64 L 64 80 L 80 80 L 96 64 L 96 48 L 80 48 L 64 64 L 64 64 L 64 64 Z  M 0 128 L 0 144 L 16 128 L 16 112 L 0 128 L 0 128 Z  M 0 32 L 16 16 L 16 32 L 32 32 L 0 64 L 0 32 Z " fill-rule="evenodd" fill="#3d4499"/></g></svg>
