<?xml version="1.0" standalone="no"?><!-- Generator: Gravit.io --><svg xmlns="http://www.w3.org/2000/svg" xmlns:xlink="http://www.w3.org/1999/xlink" style="isolation:isolate" viewBox="0 0 512 192" width="512px" height="192px"><defs><clipPath id="_clipPath_maiK7MCLgEpx7gMfbFXQrqmpsegp7GKr"><rect width="512" height="192"/></clipPath></defs><g clip-path="url(#_clipPath_maiK7MCLgEpx7gMfbFXQrqmpsegp7GKr)">
<path d=" M 16 0 L 0 0 L 0 16 L 16 0 L 16 0 L 16 0 L 16 0 L 16 0 L 16 0 L 16 0 L 16 0 L 16 0 L 16 0 L 16 0 L 16 0 L 16 0 L 16 0 L 16 0 L 16 0 Z  M 144 80 L 160 64 L 144 48 L 144 32 L 160 16 L 160 0 L 128 0 L 112 16 L 112 48 L 128 64 L 128 80 L 144 96 L 144 80 L 144 80 L 144 80 L 144 80 L 144 80 L 144 80 L 144 80 L 144 80 L 144 80 L 144 80 L 144 80 Z  M 160 112 L 176 112 L 208 80 L 208 64 L 224 64 L 256 32 L 240 32 L 240 16 L 256 0 L 224 0 L 208 16 L 208 48 L 192 64 L 192 80 L 160 112 L 160 112 L 160 112 L 160 112 L 160 112 L 160 112 L 160 112 L 160 112 L 160 112 L 160 112 L 160 112 L 160 112 L 160 112 L 160 112 L 160 112 L 160 112 Z  M 16 64 L 32 48 L 32 32 L 48 16 L 48 0 L 16 32 L 0 32 L 0 64 L 16 64 L 16 64 L 16 64 L 16 64 L 16 64 L 16 64 L 16 64 L 16 64 L 16 64 L 16 64 L 16 64 L 16 64 L 16 64 L 16 64 L 16 64 Z  M 80 80 L 48 48 L 48 64 L 32 80 L 16 80 L 0 96 L 32 96 L 48 112 L 80 80 L 80 80 L 80 80 L 80 80 L 80 80 L 80 80 L 80 80 L 80 80 L 80 80 L 80 80 L 80 80 L 80 80 L 80 80 L 80 80 Z  M 96 16 L 112 0 L 64 0 L 64 16 L 48 32 L 48 48 L 80 80 L 80 64 L 64 48 L 80 48 L 96 32 L 96 16 L 96 16 L 96 16 L 96 16 L 96 16 L 96 16 L 96 16 L 96 16 L 96 16 L 96 16 L 96 16 L 96 16 Z  M 128 64 L 128 64 L 128 96 L 112 112 L 80 112 L 128 64 L 128 64 L 128 64 L 128 64 L 128 64 L 128 64 L 128 64 L 128 64 L 128 64 L 128 64 L 128 64 L 128 64 Z  M 304 48 L 304 48 L 288 64 L 288 80 L 272 96 L 272 128 L 288 144 L 288 128 L 304 112 L 304 112 L 304 80 L 320 64 L 320 64 L 320 80 L 336 64 L 336 48 L 320 32 L 336 16 L 320 16 L 304 32 L 304 48 L 304 48 L 304 48 L 304 48 L 304 48 L 304 48 L 304 48 Z  M 0 16 L 0 0 L 0 16 L 0 16 L 0 16 L 0 16 L 0 16 L 0 16 L 0 16 L 0 16 L 0 16 L 0 16 Z  M 240 96 L 240 96 L 256 96 L 272 80 L 256 80 L 240 96 L 240 96 L 240 96 L 240 96 L 240 96 L 240 96 L 240 96 L 240 96 L 240 96 Z  M 208 160 L 192 176 L 176 176 L 176 144 L 192 128 L 208 128 L 240 96 L 240 112 L 208 144 L 208 160 L 208 160 L 208 160 L 208 160 L 208 160 L 208 160 L 208 160 L 208 160 Z  M 384 80 L 416 48 L 416 32 L 448 0 L 432 0 L 384 48 L 384 64 L 368 80 L 384 80 L 384 80 L 384 80 L 384 80 L 384 80 Z  M 432 32 L 464 32 L 480 16 L 480 16 L 512 16 L 512 0 L 448 0 L 448 16 L 432 32 L 432 32 L 432 32 L 432 32 Z  M 512 48 L 512 32 L 496 32 L 480 16 L 480 16 L 464 32 L 496 64 L 512 48 L 512 48 L 512 48 Z  M 432 96 L 448 96 L 464 80 L 464 64 L 432 96 L 432 96 Z  M 480 144 L 512 112 L 512 64 L 496 80 L 480 80 L 448 112 L 448 144 L 480 144 Z  M 496 16" fill-rule="evenodd" fill="#0c0218"/><path d=" M 440.928 40.928 L 432 32 L 448 16 L 448 0 L 416 32 L 416 48 L 384 80 L 384 80 L 368 80 L 400 112 L 400 96 L 400 96 L 384.164 80.164 L 384.164 80.164 L 400 96 L 432 64 L 448 64 L 448 48 L 480 80 L 496 80 L 496 64 L 464 32 L 432 32 L 440.928 40.928 Z  M 288 64 L 288 80 L 272 96 L 272 112 L 256 112 L 208 160 L 208 160 L 208 144 L 240 112 L 240 96 L 256 96 L 288 64 L 288 64 L 288 64 L 288 64 L 288 64 L 288 64 L 288 64 L 288 64 L 288 64 L 288 64 L 288 64 L 288 64 L 288 64 L 288 64 Z  M 336 16 L 320 16 L 304 0 L 368 0 L 384 16 L 384 16 L 384 16 L 384 16 L 384 16 L 384 16 L 384 32 L 368 32 L 352 48 L 368 64 L 368 112 L 352 112 L 320 80 L 336 64 L 336 48 L 320 32 L 336 16 L 336 16 L 336 16 L 336 16 L 336 16 L 336 16 L 336 16 Z  M 176 96 L 176 64 L 160 48 L 192 16 L 208 16 L 224 0 L 160 0 L 160 16 L 144 32 L 144 48 L 160 64 L 144 80 L 144 96 L 176 96 L 176 96 L 176 96 L 176 96 L 176 96 L 176 96 L 176 96 L 176 96 L 176 96 L 176 96 L 176 96 L 176 96 L 176 96 L 176 96 L 176 96 L 176 96 Z  M 16 32 L 0 32 L 0 16 L 16 32 L 16 32 L 16 32 L 16 32 L 16 32 L 16 32 L 16 32 L 16 32 L 16 32 L 16 32 L 16 32 L 16 32 L 16 32 L 16 32 L 16 32 L 16 32 L 16 32 L 16 32 L 16 32 L 16 32 Z  M 96 80 L 48 128 L 48 160 L 32 160 L 0 128 L 0 96 L 32 96 L 48 112 L 80 80 L 96 80 L 96 80 L 96 80 L 96 80 L 96 80 L 96 80 L 96 80 L 96 80 L 96 80 L 96 80 L 96 80 L 96 80 L 96 80 L 96 80 L 96 80 L 96 80 L 96 80 L 96 80 L 96 80 Z  M 112 16 L 96 16 L 96 32 L 80 48 L 64 48 L 80 64 L 96 48 L 112 64 L 112 16 L 112 16 L 112 16 L 112 16 L 112 16 L 112 16 L 112 16 L 112 16 L 112 16 L 112 16 L 112 16 L 112 16 L 112 16 L 112 16 L 112 16 L 112 16 L 112 16 L 112 16 Z  M 128 80 L 128 96 L 112 112 L 80 112 L 112 144 L 128 128 L 128 112 L 144 96 L 128 80 L 128 80 L 128 80 L 128 80 L 128 80 L 128 80 L 128 80 L 128 80 L 128 80 L 128 80 L 128 80 L 128 80 L 128 80 L 128 80 L 128 80 L 128 80 L 128 80 Z  M 208 64 L 224 64 L 224 64 L 224 64 L 224 64 L 224 64 L 224 64 L 224 64 L 224 64 L 224 64 L 224 64 L 224 64 L 256 32 L 240 32 L 240 16 L 256 0 L 304 0 L 288 16 L 288 32 L 256 64 L 272 64 L 272 80 L 240 80 L 208 112 L 192 112 L 176 128 L 160 112 L 176 112 L 208 80 L 208 64 L 208 64 L 208 64 L 208 64 L 208 64 Z  M 48 32 L 32 32 L 32 48 L 16 64 L 0 64 L 16 80 L 32 80 L 32 64 L 48 48 L 48 32 L 48 32 L 48 32 L 48 32 L 48 32 L 48 32 L 48 32 L 48 32 L 48 32 L 48 32 L 48 32 L 48 32 L 48 32 L 48 32 L 48 32 L 48 32 L 48 32 L 48 32 L 48 32 L 48 32 Z  M 304 144 L 288 144 L 288 128 L 304 112 L 304 80 L 320 64 L 320 112 L 304 128 L 304 144 L 304 144 L 304 144 L 304 144 L 304 144 L 304 144 L 304 144 L 304 144 L 304 144 L 304 144 L 304 144 L 304 144 L 304 144 Z  M 400 0 L 384 0 L 400 16 L 400 0 L 400 0 L 400 0 L 400 0 L 400 0 L 400 0 L 400 0 L 400 0 L 400 0 L 400 0 L 400 0 Z  M 512 32 L 512 16 L 480 16 L 496 32 L 512 32 L 512 32 L 512 32 L 512 32 L 512 32 L 512 32 L 512 32 L 512 32 L 512 32 L 512 32 Z  M 64 0 L 64 16 L 48 16 L 48 0 L 64 0 L 64 0 L 64 0 L 64 0 L 64 0 L 64 0 L 64 0 L 64 0 L 64 0 Z  M 416 128 L 432 112 L 448 112 L 480 80 L 464 64 L 464 80 L 448 96 L 432 96 L 416 112 L 400 112 L 400 128 L 416 144 L 416 128 L 416 128 L 416 128 L 416 128 L 416 128 L 416 128 L 416 128 L 416 128 Z  M 496 176 L 496 160 L 480 160 L 512 128 L 512 112 L 480 144 L 448 144 L 480 176 L 496 176 L 496 176 L 496 176 L 496 176 L 496 176 L 496 176 Z  M 224 160 L 192 192 L 176 176 L 192 176 L 208 160 L 208 160 L 224 160 L 224 160 L 224 160 L 224 160 Z " fill-rule="evenodd" fill="#170236"/><path d=" M 208 48 L 192 64 L 192 80 L 176 96 L 176 64 L 160 48 L 192 16 L 208 16 L 208 48 L 208 48 L 208 48 L 208 48 L 208 48 L 208 48 L 208 48 L 208 48 L 208 48 L 208 48 L 208 48 Z  M 240 80 L 208 112 L 192 112 L 176 128 L 208 128 L 256 80 L 240 80 L 240 80 L 240 80 L 240 80 L 240 80 L 240 80 L 240 80 L 240 80 L 240 80 L 240 80 Z  M 0 64 L 16 80 L 0 96 L 0 64 L 0 64 L 0 64 L 0 64 L 0 64 L 0 64 L 0 64 L 0 64 L 0 64 L 0 64 L 0 64 L 0 64 L 0 64 L 0 64 L 0 64 L 0 64 Z  M 112 16 L 128 0 L 112 0 L 96 16 L 112 16 L 112 16 L 112 16 L 112 16 L 112 16 L 112 16 L 112 16 L 112 16 L 112 16 L 112 16 L 112 16 L 112 16 L 112 16 L 112 16 L 112 16 Z  M 32 80 L 48 64 L 48 48 L 32 64 L 32 80 L 32 80 L 32 80 L 32 80 L 32 80 L 32 80 L 32 80 L 32 80 L 32 80 L 32 80 L 32 80 L 32 80 L 32 80 L 32 80 Z  M 48 0 L 16 0 L 0 16 L 16 32 L 48 0 L 48 0 L 48 0 L 48 0 L 48 0 L 48 0 L 48 0 L 48 0 L 48 0 L 48 0 L 48 0 L 48 0 L 48 0 L 48 0 L 48 0 L 48 0 L 48 0 Z  M 128 64 L 80 112 L 80 128 L 48 160 L 48 128 L 96 80 L 80 80 L 80 64 L 96 48 L 112 64 L 112 48 L 128 64 L 128 64 L 128 64 L 128 64 L 128 64 L 128 64 L 128 64 L 128 64 L 128 64 L 128 64 L 128 64 L 128 64 L 128 64 Z  M 48 16 L 32 32 L 48 32 L 64 16 L 48 16 L 48 16 L 48 16 L 48 16 L 48 16 L 48 16 L 48 16 L 48 16 L 48 16 L 48 16 L 48 16 L 48 16 L 48 16 L 48 16 L 48 16 L 48 16 L 48 16 Z  M 160 96 L 144 96 L 128 112 L 128 128 L 112 144 L 128 144 L 144 128 L 144 112 L 160 96 L 160 96 L 160 96 L 160 96 L 160 96 L 160 96 L 160 96 L 160 96 L 160 96 L 160 96 L 160 96 L 160 96 Z  M 272 112 L 272 128 L 256 128 L 240 144 L 240 160 L 208 192 L 192 192 L 224 160 L 208 160 L 256 112 L 272 112 L 272 112 L 272 112 L 272 112 L 272 112 L 272 112 L 272 112 L 272 112 L 272 112 Z  M 304 48 L 304 32 L 320 16 L 304 0 L 288 16 L 288 32 L 256 64 L 272 64 L 272 80 L 304 48 L 304 48 L 304 48 L 304 48 L 304 48 L 304 48 L 304 48 L 304 48 Z  M 352 112 L 336 128 L 320 128 L 304 144 L 304 128 L 320 112 L 320 80 L 352 112 L 352 112 L 352 112 L 352 112 L 352 112 L 352 112 L 352 112 Z  M 384 64 L 384 48 L 432 0 L 400 0 L 400 16 L 384 0 L 368 0 L 384 16 L 384 32 L 368 32 L 352 48 L 368 64 L 368 80 L 384 64 L 384 64 L 384 64 L 384 64 L 384 64 L 384 64 Z  M 368 112 L 384 96 L 368 80 L 368 112 L 368 112 L 368 112 L 368 112 L 368 112 Z  M 400 112 L 400 96 L 432 64 L 448 64 L 448 48 L 464 64 L 416 112 L 400 112 L 400 112 L 400 112 L 400 112 Z  M 448 128 L 448 112 L 432 112 L 416 128 L 416 144 L 432 144 L 448 128 L 448 128 L 448 128 Z  M 512 64 L 512 48 L 496 64 L 496 80 L 512 64 L 512 64 Z  M 512 160 L 496 176 L 496 160 L 480 160 L 512 128 L 512 160 Z " fill-rule="evenodd" fill="#3d4499"/></g></svg>
