<?xml version="1.0" encoding="UTF-8" standalone="no"?>
<svg
   xmlns:dc="http://purl.org/dc/elements/1.1/"
   xmlns:cc="http://creativecommons.org/ns#"
   xmlns:rdf="http://www.w3.org/1999/02/22-rdf-syntax-ns#"
   xmlns:svg="http://www.w3.org/2000/svg"
   xmlns="http://www.w3.org/2000/svg"
   xmlns:xlink="http://www.w3.org/1999/xlink"
   viewBox="0 0 683 256"
   height="256"
   width="680"
   xml:space="preserve"
   id="svg2"
   version="1.1"><metadata
     id="metadata8"><rdf:RDF><cc:Work
         rdf:about=""><dc:format>image/svg+xml</dc:format><dc:type
           rdf:resource="http://purl.org/dc/dcmitype/StillImage" /></cc:Work></rdf:RDF></metadata><defs
     id="defs6"><clipPath
       id="clipPath26"
       clipPathUnits="userSpaceOnUse"><path
         id="path24"
         d="M 0,192 H 512 V 0 H 0 Z" /></clipPath><clipPath
       id="clipPath84"
       clipPathUnits="userSpaceOnUse"><path
         id="path82"
         d="M 0,192 H 512 V 0 H 0 Z" /></clipPath><clipPath
       id="clipPath92"
       clipPathUnits="userSpaceOnUse"><path
         id="path90"
         d="m 336,176 v 0 0 z" /></clipPath><clipPath
       id="clipPath104"
       clipPathUnits="userSpaceOnUse"><path
         id="path102"
         d="m 320,192 v 0 0 z" /></clipPath><clipPath
       id="clipPath116"
       clipPathUnits="userSpaceOnUse"><path
         id="path114"
         d="m 127.71,80.2959 h 0.58 v -0.5918 h -0.58 z" /></clipPath><clipPath
       id="clipPath132"
       clipPathUnits="userSpaceOnUse"><path
         id="path130"
         d="m 111.71,96.2959 h 0.58 v -0.5918 h -0.58 z" /></clipPath></defs><g
     transform="matrix(1.3333333,0,0,-1.3333333,0,256)"
     id="g10"><g
       transform="translate(32.0004,144)"
       id="g30"><path
         id="path32"
         style="fill:#0c0218;fill-opacity:1;fill-rule:nonzero;stroke:none"
         d="m 0,0 -32,-32 v -48 l 16,16 H 0 l 32,32 V 0 Z" /></g><g
       transform="translate(80,96)"
       id="g34"><path
         id="path36"
         style="fill:#0c0218;fill-opacity:1;fill-rule:nonzero;stroke:none"
         d="M 0,0 H -16 L -32,-16 V -32 Z" /></g><g
       transform="translate(0,48.3327)"
       id="g38"><path
         id="path40"
         style="fill:#0c0218;fill-opacity:1;fill-rule:nonzero;stroke:none"
         d="M 0,0 V -16.332 H 16 L 32,-32.333 H 0 v -16 h 64 v 16 l 16,16.001 H 64 48 L 16,15.667 Z" /></g><g
       transform="translate(127.9998,80.0001)"
       id="g42"><path
         id="path44"
         style="fill:#0c0218;fill-opacity:1;fill-rule:nonzero;stroke:none"
         d="M 0,0 -31.999,-32 V -48 L -64,-80 h 16 l 48,48 v 16 L 16,0 Z" /></g><g
       transform="translate(224,144)"
       id="g46"><path
         id="path48"
         style="fill:#0c0218;fill-opacity:1;fill-rule:nonzero;stroke:none"
         d="M 0,0 16,-16 V -48 L 0,-64 v -16 l -16,-16 v -16 l -16,-16 h -16 l 16,16 -16,16 v 16 l 16,16 v -16 l 16,16 v 32 l 16,16 z" /></g><g
       transform="translate(304,160)"
       id="g50"><path
         id="path52"
         style="fill:#0c0218;fill-opacity:1;fill-rule:nonzero;stroke:none"
         d="M 0,0 16,16 H 32 V -16 L 16,-32 H 0 l -32,-32 v 16 l 32,32 z" /></g><g
       transform="translate(272,96)"
       id="g54"><path
         id="path56"
         style="fill:#0c0218;fill-opacity:1;fill-rule:nonzero;stroke:none"
         d="m 0,0 h -16 l -16,-16 h 16 z" /></g><g
       transform="translate(368.0001,80.0001)"
       id="g58"><path
         id="path60"
         style="fill:#0c0218;fill-opacity:1;fill-rule:nonzero;stroke:none"
         d="M 0,0 -16,-16 0,-32 v -16 l -16,-16 v -16 h 32 l 16,16 v 32 L 16,-16 V 0 L 0,16 Z" /></g><g
       transform="translate(384,64)"
       id="g62"><path
         id="path64"
         style="fill:#0c0218;fill-opacity:1;fill-rule:nonzero;stroke:none"
         d="M 0,0 V 32 L 16,48 H 48 Z" /></g><g
       transform="translate(432,80.0001)"
       id="g66"><path
         id="path68"
         style="fill:#0c0218;fill-opacity:1;fill-rule:nonzero;stroke:none"
         d="M 0,0 V -16 L 16,-32 H 0 l -16,-16 v -16 l -16,-16 h 48 v 16 l 16,16 v 32 L 48,0 H 64 L 80,-16 V 16 H 48 L 32,32 Z" /></g><g
       transform="translate(495.9999,63.9999)"
       id="g70"><path
         id="path72"
         style="fill:#0c0218;fill-opacity:1;fill-rule:nonzero;stroke:none"
         d="M 0,0 -16,-16 V -32 L -32,-48 V -64 L 0,-32 H 16 V 0 Z" /></g><g
       transform="translate(495.9999)"
       id="g74"><path
         id="path76"
         style="fill:#0c0218;fill-opacity:1;fill-rule:nonzero;stroke:none"
         d="M 0,0 H 16 V 16 Z" /></g><g
       id="g78"><g
         clip-path="url(#clipPath84)"
         id="g80"><g
           id="g86"><g
             id="g88" /><g
             id="g96"><g
               style="opacity:0.75"
               id="g94"
               clip-path="url(#clipPath92)" /></g></g><g
           id="g98"><g
             id="g100" /><g
             id="g108"><g
               style="opacity:0.75"
               id="g106"
               clip-path="url(#clipPath104)" /></g></g><g
           id="g110"><g
             id="g112" /><g
             id="g124"><g
               style="opacity:0.75"
               id="g122"
               clip-path="url(#clipPath116)"><g
                 id="g120"
                 transform="translate(128.1621,79.7041)"><path
                   id="path118"
                   style="fill:#82211a;fill-opacity:1;fill-rule:nonzero;stroke:none"
                   d="M 0,0 C 0.343,0 -0.087,0.592 -0.324,0.592 -0.667,0.592 -0.237,0 0,0" /></g></g></g></g><g
           id="g126"><g
             id="g128" /><g
             id="g140"><g
               style="opacity:0.75"
               id="g138"
               clip-path="url(#clipPath132)"><g
                 id="g136"
                 transform="translate(112.1621,95.7041)"><path
                   id="path134"
                   style="fill:#82211a;fill-opacity:1;fill-rule:nonzero;stroke:none"
                   d="M 0,0 C 0.343,0 -0.087,0.592 -0.324,0.592 -0.667,0.592 -0.237,0 0,0" /></g></g></g></g></g></g><g
       transform="translate(288,160)"
       id="g142"><path
         id="path144"
         style="fill:#1c0050;fill-opacity:1;fill-rule:nonzero;stroke:none"
         d="M 0,0 32,32 48,16 H 32 L 16,0 Z" /></g><g
       transform="translate(16.0002,176.0004)"
       id="g146"><path
         id="path148"
         style="fill:#1c0050;fill-opacity:1;fill-rule:nonzero;stroke:none"
         d="m 0,0 v -16 h 16 l -32,-32.001 v -16 L 16,-32 H 48 L 16,0 Z" /></g><g
       transform="translate(144,111.9996)"
       id="g150"><path
         id="path152"
         style="fill:#1c0050;fill-opacity:1;fill-rule:nonzero;stroke:none"
         d="M 0,0 V -48 L 16,-64 0,-79.999 h -16 v -16 L 0.75,-112 H 64 L 48,-95.999 H 32 l 16,16 L 32,-64 v 16 L 48,-31.999 16,0 Z" /></g><g
       transform="translate(96.0003,127.9998)"
       id="g154"><path
         id="path156"
         style="fill:#1c0050;fill-opacity:1;fill-rule:nonzero;stroke:none"
         d="m 0,0 -16,-16 h -16 l -32,-32 h -16 v -16 l 31.999,-31.999 H -16 L -32,-112 v -16 L 0,-95.999 V -80 l 31.999,32 H 48 L 15.999,-16 V -31.999 L 0,-48 -16,-64 h -16 v -16 l -16.001,16 v 16 L -32,-31.999 h 16 L 0,-16 H 15.999 V 0 L 0,16 Z" /></g><g
       transform="translate(0,32.0004)"
       id="g158"><path
         id="path160"
         style="fill:#1c0050;fill-opacity:1;fill-rule:nonzero;stroke:none"
         d="M 0,0 V -16 H 32 L 16,0 Z" /></g><g
       transform="translate(111.9996)"
       id="g162"><path
         id="path164"
         style="fill:#1c0050;fill-opacity:1;fill-rule:nonzero;stroke:none"
         d="M 0,0 H 16 L 0,16 Z" /></g><g
       transform="translate(208.0005,144)"
       id="g166"><path
         id="path168"
         style="fill:#1c0050;fill-opacity:1;fill-rule:nonzero;stroke:none"
         d="M 0,0 H 16 V -16 L 0,-32 v -32 l -16,-16 v 48 l 16,16 z" /></g><g
       transform="translate(224.0005,64)"
       id="g170"><path
         id="path172"
         style="fill:#1c0050;fill-opacity:1;fill-rule:nonzero;stroke:none"
         d="M 0,0 V 16 L 16,32 V 48 H 32 L 80,96 V 80 L 48,48 V 32 H 32 Z" /></g><g
       transform="translate(320.0004,111.9996)"
       id="g174"><path
         id="path176"
         style="fill:#1c0050;fill-opacity:1;fill-rule:nonzero;stroke:none"
         d="m 0,0 h -16 l -32.001,-31.999 h -16 H -80 V -48 h 15.999 L -96,-79.999 v -16 L -112.001,-112 H -64 l 15.999,16.001 v 16 h -16 l 16,15.999 16.001,16 h 16 v 16.001 L 15.999,0 H 32 L 15.999,16 Z" /></g><g
       transform="translate(335.9997,96.0003)"
       id="g178"><path
         id="path180"
         style="fill:#1c0050;fill-opacity:1;fill-rule:nonzero;stroke:none"
         d="M 0,0 V -32 L 16,-48.001 0,-64 -15.999,-80 H -32 l -16,-16 h 64 v 16 l 16,16 v 15.999 L 16,-32 32,-16 V 0 Z" /></g><g
       transform="translate(384,80)"
       id="g182"><path
         id="path184"
         style="fill:#1c0050;fill-opacity:1;fill-rule:nonzero;stroke:none"
         d="M 0,0 V 16 L 16,32 H 48 L 16,64 0,48 V 32 L -16,16 Z" /></g><g
       transform="translate(400,16)"
       id="g186"><path
         id="path188"
         style="fill:#1c0050;fill-opacity:1;fill-rule:nonzero;stroke:none"
         d="M 0,0 H 16 V 16 L 32,32 H 48 L 32,48 16,32 0,48 Z" /></g><g
       transform="translate(416,80)"
       id="g190"><path
         id="path192"
         style="fill:#1c0050;fill-opacity:1;fill-rule:nonzero;stroke:none"
         d="M 0,0 48,48 V 80 H 64 L 96,48 V 16 H 64 L 48,32 16,0 Z" /></g><path
       id="path194"
       style="fill:#1c0050;fill-opacity:1;fill-rule:nonzero;stroke:none"
       d="m 448,0 h 16 v 16 h -16 z" /><g
       transform="translate(464,32)"
       id="g196"><path
         id="path198"
         style="fill:#1c0050;fill-opacity:1;fill-rule:nonzero;stroke:none"
         d="M 0,0 H 16 V 16 L 32,32 H 48 L 32,48 H 16 V 32 L 0,16 Z" /></g><g
       transform="translate(496,32)"
       id="g200"><path
         id="path202"
         style="fill:#1c0050;fill-opacity:1;fill-rule:nonzero;stroke:none"
         d="M 0,0 H 16 V -16 Z" /></g><g
       transform="translate(0,160.0002)"
       id="g204"><path
         id="path206"
         style="fill:#3d4499;fill-opacity:1;fill-rule:nonzero;stroke:none"
         d="M 0,0 V -32 L 32,0 H 16 v 16 z" /></g><g
       transform="translate(64,128)"
       id="g208"><path
         id="path210"
         style="fill:#3d4499;fill-opacity:1;fill-rule:nonzero;stroke:none"
         d="M 0,0 V -16 H 16 L 32,0 V 16 H 16 Z" /></g><g
       transform="translate(0,63.9999)"
       id="g212"><path
         id="path214"
         style="fill:#3d4499;fill-opacity:1;fill-rule:nonzero;stroke:none"
         d="M 0,0 V -15.667 L 16,0 v 16 z" /></g><g
       transform="translate(112,112)"
       id="g216"><path
         id="path218"
         style="fill:#3d4499;fill-opacity:1;fill-rule:nonzero;stroke:none"
         d="m 0,0 v -16 l -32,-32 h -16 v -16 l -16,16 48,48" /></g><g
       transform="translate(144,112)"
       id="g220"><path
         id="path222"
         style="fill:#3d4499;fill-opacity:1;fill-rule:nonzero;stroke:none"
         d="M 0,0 -16,-16 0,-32 Z" /></g><g
       transform="translate(127.9998,63.9999)"
       id="g224"><path
         id="path226"
         style="fill:#3d4499;fill-opacity:1;fill-rule:nonzero;stroke:none"
         d="m 0,0 v -16 l -48,-48 h 32 v 16 L 0,-32 H 16 L 32,-16 16,0 v 16 z" /></g><g
       transform="translate(111.9996,16.0002)"
       id="g228"><path
         id="path230"
         style="fill:#3d4499;fill-opacity:1;fill-rule:nonzero;stroke:none"
         d="M 0,0 16,-16 H 32 L 16,0 v 16 z" /></g><g
       transform="translate(160.0005,112)"
       id="g232"><path
         id="path234"
         style="fill:#3d4499;fill-opacity:1;fill-rule:nonzero;stroke:none"
         d="M 0,0 16,16 H 32 L 48,32 V 16 L 32,0 v -32 z" /></g><g
       transform="translate(208.0008,47.9997)"
       id="g236"><path
         id="path238"
         style="fill:#3d4499;fill-opacity:1;fill-rule:nonzero;stroke:none"
         d="m 0,0 v -15.999 l -16,-16 L 0,-48 15.999,-31.999 v 16 L 47.999,16 H 32 v 16 z" /></g><g
       transform="translate(240.0005,112)"
       id="g240"><path
         id="path242"
         style="fill:#3d4499;fill-opacity:1;fill-rule:nonzero;stroke:none"
         d="M 0,0 V 16 H 16 L 32,32 V 48 L 64,80 H 80 L 48,48 H 64 L 16,0 Z" /></g><g
       transform="translate(272,80)"
       id="g244"><path
         id="path246"
         style="fill:#3d4499;fill-opacity:1;fill-rule:nonzero;stroke:none"
         d="M 0,0 32,32 H 48 L 64,48 H 32 L -16,0 Z" /></g><g
       transform="translate(304,48)"
       id="g248"><path
         id="path250"
         style="fill:#3d4499;fill-opacity:1;fill-rule:nonzero;stroke:none"
         d="M 0,0 16,16 V 32 L 32,48 V 16 L 48,0 16,-32 H 0 Z" /></g><g
       transform="translate(352,96)"
       id="g252"><path
         id="path254"
         style="fill:#3d4499;fill-opacity:1;fill-rule:nonzero;stroke:none"
         d="M 0,0 H 16 L 32,16 V 32 L 48,48 H 32 L 16,32 V 16 Z" /></g><g
       transform="translate(384,64)"
       id="g256"><path
         id="path258"
         style="fill:#3d4499;fill-opacity:1;fill-rule:nonzero;stroke:none"
         d="M 0,0 48,48 V 64 L 80,96 V 64 L 32,16 H 48 V 0 L 32,-16 16,0 v -16 z" /></g><g
       transform="translate(399.9996,16.0002)"
       id="g260"><path
         id="path262"
         style="fill:#3d4499;fill-opacity:1;fill-rule:nonzero;stroke:none"
         d="M 0,0 -15.999,-16 H 0 L 16,0 Z" /></g><g
       transform="translate(448,16)"
       id="g264"><path
         id="path266"
         style="fill:#3d4499;fill-opacity:1;fill-rule:nonzero;stroke:none"
         d="M 0,0 16,16 H 32 L 16,0 Z" /></g><g
       transform="translate(464,48)"
       id="g268"><path
         id="path270"
         style="fill:#3d4499;fill-opacity:1;fill-rule:nonzero;stroke:none"
         d="M 0,0 16,16 V 32 L 0,16 Z" /></g><g
       transform="translate(464.0004)"
       id="g272"><path
         id="path274"
         style="fill:#3d4499;fill-opacity:1;fill-rule:nonzero;stroke:none"
         d="M 0,0 H 32 L 48,16 32,32 Z" /></g><g
       transform="translate(512,128)"
       id="g276"><path
         id="path278"
         style="fill:#3d4499;fill-opacity:1;fill-rule:nonzero;stroke:none"
         d="M 0,0 -16,16 0,32 Z" /></g><g
       transform="translate(335.9997,111.9996)"
       id="g280"><path
         id="path282"
         style="fill:#0c0218;fill-opacity:1;fill-rule:nonzero;stroke:none"
         d="M 0,0 -32,-31.999 V -48 h -16 l -16,-16 -16,-15.999 h 16 v -16 L -79.999,-112 H -48 l 16,16.001 V -64 l 16.001,16 v 16.001 L 16,0 Z" /></g></g></svg>
